<svg width="31" height="30" viewBox="0 0 31 30" fill="none" xmlns="http://www.w3.org/2000/svg">
<path d="M13.9148 17.0302L13.9152 17.0305L15.0569 17.9781C15.0569 17.9781 15.0569 17.9781 15.0569 17.9781C15.1103 18.0225 15.1168 18.0987 15.0729 18.151C15.0272 18.2048 14.9434 18.2132 14.8868 18.1665C14.8868 18.1665 14.8867 18.1664 14.8867 18.1664L13.7454 17.2191C13.7454 17.2191 13.7454 17.2191 13.7454 17.2191C13.6912 17.1741 13.6859 17.0976 13.7288 17.0468L13.7293 17.0463C13.7751 16.9919 13.8594 16.9841 13.9148 17.0302Z" stroke="white"/>
<path d="M22.9343 7.49728L22.9341 7.4971L22.8341 7.41418C22.8341 7.41415 22.834 7.41411 22.834 7.41408C22.0798 6.78823 20.9512 6.88246 20.3126 7.62464L14.5404 13.6552L14.5296 13.6665L14.5195 13.6785C13.8813 14.4348 13.9833 15.5691 14.7445 16.2011C14.7446 16.2012 14.7446 16.2012 14.7447 16.2012L15.641 16.9457L15.6414 16.946C16.4003 17.5751 17.5377 17.4765 18.1741 16.7231L18.1842 16.7113L18.1934 16.6988L23.1689 10.007C23.7967 9.25091 23.6911 8.12576 22.9343 7.49728Z" stroke="white"/>
<path d="M12.9675 17.4759C10.5581 16.6362 9.51983 18.7794 9.39837 20.5892C9.2773 22.3989 7.76758 22.3918 7.76758 22.3918C16.1023 24.6675 14.4912 18.7405 14.4912 18.7405L12.9675 17.4759ZM10.0198 19.8068C10.4149 17.1063 12.5432 17.7712 12.5432 17.7712L13.3758 18.3606C11.2013 17.7152 10.0198 19.8068 10.0198 19.8068Z" fill="white"/>
<mask id="path-5-inside-1" fill="white">
<path d="M9.4886 14.0187C8.01957 14.2382 8.88605 16.0929 9.82362 17.5801C9.82362 17.5801 11.432 13.7291 9.4886 14.0187Z"/>
</mask>
<path d="M9.4886 14.0187L9.19383 12.0406L9.19308 12.0407L9.4886 14.0187ZM9.82362 17.5801H11.8236V17.0023L11.5155 16.5135L9.82362 17.5801ZM9.19308 12.0407C8.35609 12.1657 7.46158 12.6144 6.99024 13.585C6.58954 14.4103 6.6874 15.2446 6.8011 15.7572C7.03272 16.8012 7.65521 17.8908 8.13175 18.6467L11.5155 16.5135C11.3042 16.1783 11.1129 15.8474 10.9637 15.5442C10.8082 15.228 10.7327 15.0106 10.7062 14.8909C10.6697 14.7264 10.7678 14.963 10.5885 15.3322C10.4853 15.5447 10.3232 15.7272 10.131 15.8518C9.95356 15.9669 9.81355 15.9924 9.78412 15.9968L9.19308 12.0407ZM9.82362 17.5801C11.6691 18.3509 11.6693 18.3505 11.6695 18.3501C11.6695 18.3499 11.6697 18.3495 11.6698 18.3492C11.6701 18.3486 11.6703 18.348 11.6706 18.3472C11.6712 18.3458 11.6719 18.3441 11.6727 18.3422C11.6743 18.3383 11.6763 18.3335 11.6787 18.3278C11.6834 18.3163 11.6895 18.3012 11.697 18.2826C11.7119 18.2455 11.7321 18.1945 11.7562 18.1316C11.8043 18.0062 11.8691 17.8311 11.9394 17.6229C12.0758 17.219 12.2516 16.637 12.356 16.0294C12.4446 15.5137 12.5568 14.596 12.2288 13.7386C12.0393 13.2431 11.6707 12.6891 11.0199 12.3335C10.387 11.9877 9.72701 11.9611 9.19383 12.0406L9.78338 15.9969C9.73603 16.0039 9.45093 16.0344 9.10204 15.8437C8.7352 15.6433 8.55976 15.3426 8.49276 15.1675C8.43653 15.0204 8.4484 14.9498 8.44863 15.0245C8.44881 15.0857 8.4409 15.1941 8.41374 15.3522C8.35895 15.6712 8.25413 16.0338 8.14973 16.3429C8.09964 16.4912 8.05391 16.6147 8.02164 16.6988C8.0056 16.7406 7.99313 16.772 7.98543 16.7912C7.98158 16.8008 7.97895 16.8072 7.97767 16.8104C7.97703 16.8119 7.97674 16.8126 7.9768 16.8125C7.97684 16.8124 7.97696 16.8121 7.97718 16.8116C7.97728 16.8113 7.97742 16.811 7.97757 16.8106C7.97765 16.8104 7.97778 16.8101 7.97782 16.81C7.97796 16.8097 7.97811 16.8093 9.82362 17.5801Z" fill="white" mask="url(#path-5-inside-1)"/>
<path d="M7.97422 16.6975C7.97425 16.6976 7.97355 16.6988 7.97204 16.7011C7.97344 16.6986 7.97419 16.6975 7.97422 16.6975Z" stroke="white" stroke-width="2"/>
<rect x="1" y="1" width="28.2673" height="28" rx="14" stroke="white" stroke-width="2"/>
</svg>
